<?xml version="1.0" encoding="UTF-8"?>
<svg id="Layer_1" data-name="Layer 1" xmlns="http://www.w3.org/2000/svg" viewBox="0 0 656 301">
  <defs>
    <style>
      .cls-1 {
        fill: #304ffe;
        stroke: #304ffe;
        stroke-miterlimit: 10;
      }

      .cls-2 {
        fill: #fff;
      }
    </style>
  </defs>
  <path class="cls-1" d="M80.5.5h495c44.15,0,80,35.85,80,80v220H80.5C36.35,300.5.5,264.65.5,220.5V80.5C.5,36.35,36.35.5,80.5.5Z"/>
  <g>
    <path class="cls-2" d="M240.41,240.49h-43.74v-76.21h-64.8v76.21h-43.99V58h43.99v72.45h64.8V58h43.74v182.49Z"/>
    <path class="cls-2" d="M309.55,243c-20.81,0-37.64-6.2-50.51-18.61-12.87-12.41-19.3-28.56-19.3-48.44v-3.51c0-13.87,2.57-26.11,7.71-36.72,5.14-10.61,12.64-18.82,22.5-24.63,9.86-5.81,21.56-8.71,35.09-8.71,19.05,0,34.09,5.91,45.12,17.73,11.03,11.83,16.54,28.31,16.54,49.45v16.42h-83.98c1.5,7.6,4.8,13.58,9.9,17.92,5.1,4.35,11.7,6.52,19.8,6.52,13.37,0,23.81-4.68,31.34-14.04l19.3,22.81c-5.26,7.27-12.72,13.06-22.37,17.36-9.65,4.3-20.04,6.45-31.15,6.45ZM304.78,134.96c-12.37,0-19.72,8.19-22.06,24.57h42.62v-3.26c.17-6.77-1.55-12.01-5.14-15.73-3.59-3.72-8.73-5.58-15.42-5.58Z"/>
    <path class="cls-2" d="M447.79,143.1l-13.91-1c-13.29,0-21.81,4.18-25.57,12.53v85.86h-42.24V104.88h39.61l1.38,17.42c7.1-13.29,17-19.93,29.71-19.93,4.51,0,8.44.5,11.78,1.5l-.75,39.23Z"/>
    <path class="cls-2" d="M510.97,243c-20.81,0-37.64-6.2-50.51-18.61-12.87-12.41-19.3-28.56-19.3-48.44v-3.51c0-13.87,2.57-26.11,7.71-36.72,5.14-10.61,12.64-18.82,22.5-24.63,9.86-5.81,21.56-8.71,35.09-8.71,19.05,0,34.09,5.91,45.12,17.73,11.03,11.83,16.54,28.31,16.54,49.45v16.42h-83.98c1.5,7.6,4.8,13.58,9.9,17.92,5.1,4.35,11.7,6.52,19.8,6.52,13.37,0,23.81-4.68,31.34-14.04l19.3,22.81c-5.26,7.27-12.72,13.06-22.37,17.36-9.65,4.3-20.04,6.45-31.15,6.45ZM506.21,134.96c-12.37,0-19.72,8.19-22.06,24.57h42.62v-3.26c.17-6.77-1.55-12.01-5.14-15.73-3.59-3.72-8.73-5.58-15.42-5.58Z"/>
  </g>
</svg>